<svg width="1358" height="658" viewBox="0 0 1358 658" fill="none" xmlns="http://www.w3.org/2000/svg">
<path d="M1358 658L0 658V0L1358 0V658Z" fill="#050A1B"/>
<path d="M514.332 321.75H504.378C504.196 320.462 503.825 319.318 503.264 318.318C502.704 317.303 501.984 316.439 501.105 315.727C500.226 315.015 499.211 314.47 498.06 314.091C496.923 313.712 495.688 313.523 494.355 313.523C491.946 313.523 489.848 314.121 488.06 315.318C486.272 316.5 484.885 318.227 483.901 320.5C482.916 322.758 482.423 325.5 482.423 328.727C482.423 332.045 482.916 334.833 483.901 337.091C484.901 339.348 486.295 341.053 488.082 342.205C489.87 343.356 491.938 343.932 494.287 343.932C495.605 343.932 496.825 343.758 497.946 343.409C499.082 343.061 500.09 342.553 500.969 341.886C501.848 341.205 502.575 340.379 503.151 339.409C503.741 338.439 504.151 337.333 504.378 336.091L514.332 336.136C514.075 338.273 513.431 340.333 512.401 342.318C511.385 344.288 510.014 346.053 508.287 347.614C506.575 349.159 504.529 350.386 502.151 351.295C499.787 352.189 497.113 352.636 494.128 352.636C489.976 352.636 486.264 351.697 482.991 349.818C479.734 347.939 477.158 345.22 475.264 341.659C473.385 338.098 472.446 333.788 472.446 328.727C472.446 323.652 473.401 319.333 475.31 315.773C477.219 312.212 479.81 309.5 483.082 307.636C486.355 305.758 490.037 304.818 494.128 304.818C496.825 304.818 499.325 305.197 501.628 305.955C503.946 306.712 505.999 307.818 507.787 309.273C509.575 310.712 511.029 312.477 512.151 314.568C513.287 316.659 514.014 319.053 514.332 321.75ZM536.98 352.682C533.45 352.682 530.397 351.932 527.821 350.432C525.26 348.917 523.283 346.811 521.889 344.114C520.495 341.402 519.798 338.258 519.798 334.682C519.798 331.076 520.495 327.924 521.889 325.227C523.283 322.515 525.26 320.409 527.821 318.909C530.397 317.394 533.45 316.636 536.98 316.636C540.51 316.636 543.556 317.394 546.116 318.909C548.692 320.409 550.677 322.515 552.071 325.227C553.465 327.924 554.162 331.076 554.162 334.682C554.162 338.258 553.465 341.402 552.071 344.114C550.677 346.811 548.692 348.917 546.116 350.432C543.556 351.932 540.51 352.682 536.98 352.682ZM537.026 345.182C538.632 345.182 539.973 344.727 541.048 343.818C542.124 342.894 542.935 341.636 543.48 340.045C544.041 338.455 544.321 336.644 544.321 334.614C544.321 332.583 544.041 330.773 543.48 329.182C542.935 327.591 542.124 326.333 541.048 325.409C539.973 324.485 538.632 324.023 537.026 324.023C535.404 324.023 534.041 324.485 532.935 325.409C531.844 326.333 531.018 327.591 530.457 329.182C529.912 330.773 529.639 332.583 529.639 334.614C529.639 336.644 529.912 338.455 530.457 340.045C531.018 341.636 531.844 342.894 532.935 343.818C534.041 344.727 535.404 345.182 537.026 345.182ZM560.457 352V317.091H569.685V323.25H570.094C570.821 321.205 572.033 319.591 573.73 318.409C575.427 317.227 577.457 316.636 579.821 316.636C582.215 316.636 584.253 317.235 585.935 318.432C587.616 319.614 588.738 321.22 589.298 323.25H589.662C590.374 321.25 591.662 319.652 593.526 318.455C595.404 317.242 597.624 316.636 600.185 316.636C603.442 316.636 606.086 317.674 608.116 319.75C610.162 321.811 611.185 324.735 611.185 328.523V352H601.526V330.432C601.526 328.492 601.01 327.038 599.98 326.068C598.95 325.098 597.662 324.614 596.116 324.614C594.359 324.614 592.988 325.174 592.003 326.295C591.018 327.402 590.526 328.864 590.526 330.682V352H581.139V330.227C581.139 328.515 580.647 327.152 579.662 326.136C578.692 325.121 577.412 324.614 575.821 324.614C574.745 324.614 573.776 324.886 572.912 325.432C572.063 325.962 571.389 326.712 570.889 327.682C570.389 328.636 570.139 329.758 570.139 331.045V352H560.457ZM618.832 352V317.091H628.514V352H618.832ZM623.696 312.591C622.257 312.591 621.022 312.114 619.991 311.159C618.976 310.189 618.469 309.03 618.469 307.682C618.469 306.348 618.976 305.205 619.991 304.25C621.022 303.28 622.257 302.795 623.696 302.795C625.135 302.795 626.363 303.28 627.378 304.25C628.408 305.205 628.923 306.348 628.923 307.682C628.923 309.03 628.408 310.189 627.378 311.159C626.363 312.114 625.135 312.591 623.696 312.591ZM645.952 331.818V352H636.27V317.091H645.497V323.25H645.906C646.679 321.22 647.974 319.614 649.793 318.432C651.611 317.235 653.815 316.636 656.406 316.636C658.83 316.636 660.944 317.167 662.747 318.227C664.55 319.288 665.952 320.803 666.952 322.773C667.952 324.727 668.452 327.061 668.452 329.773V352H658.77V331.5C658.785 329.364 658.24 327.697 657.134 326.5C656.027 325.288 654.505 324.682 652.565 324.682C651.262 324.682 650.111 324.962 649.111 325.523C648.126 326.083 647.353 326.902 646.793 327.977C646.247 329.038 645.967 330.318 645.952 331.818ZM691.81 365.818C688.673 365.818 685.984 365.386 683.741 364.523C681.514 363.674 679.741 362.515 678.423 361.045C677.105 359.576 676.249 357.924 675.855 356.091L684.81 354.886C685.082 355.583 685.514 356.235 686.105 356.841C686.696 357.447 687.476 357.932 688.446 358.295C689.431 358.674 690.628 358.864 692.037 358.864C694.143 358.864 695.878 358.348 697.241 357.318C698.62 356.303 699.31 354.598 699.31 352.205V345.818H698.901C698.476 346.788 697.84 347.705 696.991 348.568C696.143 349.432 695.052 350.136 693.719 350.682C692.385 351.227 690.795 351.5 688.946 351.5C686.325 351.5 683.938 350.894 681.787 349.682C679.651 348.455 677.946 346.583 676.673 344.068C675.416 341.538 674.787 338.341 674.787 334.477C674.787 330.523 675.431 327.22 676.719 324.568C678.007 321.917 679.719 319.932 681.855 318.614C684.007 317.295 686.363 316.636 688.923 316.636C690.878 316.636 692.514 316.97 693.832 317.636C695.151 318.288 696.211 319.106 697.014 320.091C697.832 321.061 698.461 322.015 698.901 322.955H699.264V317.091H708.878V352.341C708.878 355.311 708.151 357.795 706.696 359.795C705.241 361.795 703.226 363.295 700.651 364.295C698.09 365.311 695.143 365.818 691.81 365.818ZM692.014 344.227C693.575 344.227 694.893 343.841 695.969 343.068C697.06 342.28 697.893 341.159 698.469 339.705C699.06 338.235 699.355 336.477 699.355 334.432C699.355 332.386 699.067 330.614 698.491 329.114C697.916 327.598 697.082 326.424 695.991 325.591C694.901 324.758 693.575 324.341 692.014 324.341C690.423 324.341 689.082 324.773 687.991 325.636C686.901 326.485 686.075 327.667 685.514 329.182C684.954 330.697 684.673 332.447 684.673 334.432C684.673 336.447 684.954 338.189 685.514 339.659C686.09 341.114 686.916 342.242 687.991 343.045C689.082 343.833 690.423 344.227 692.014 344.227ZM756.827 318.841C756.645 317.008 755.865 315.583 754.486 314.568C753.107 313.553 751.236 313.045 748.872 313.045C747.266 313.045 745.91 313.273 744.804 313.727C743.698 314.167 742.849 314.78 742.259 315.568C741.683 316.356 741.395 317.25 741.395 318.25C741.365 319.083 741.539 319.811 741.918 320.432C742.312 321.053 742.849 321.591 743.531 322.045C744.213 322.485 745.001 322.871 745.895 323.205C746.789 323.523 747.743 323.795 748.759 324.023L752.94 325.023C754.971 325.477 756.834 326.083 758.531 326.841C760.228 327.598 761.698 328.53 762.94 329.636C764.183 330.742 765.145 332.045 765.827 333.545C766.524 335.045 766.88 336.765 766.895 338.705C766.88 341.553 766.152 344.023 764.713 346.114C763.289 348.189 761.228 349.803 758.531 350.955C755.849 352.091 752.615 352.659 748.827 352.659C745.069 352.659 741.796 352.083 739.009 350.932C736.236 349.78 734.069 348.076 732.509 345.818C730.963 343.545 730.152 340.735 730.077 337.386H739.599C739.705 338.947 740.152 340.25 740.94 341.295C741.743 342.326 742.812 343.106 744.145 343.636C745.493 344.152 747.016 344.409 748.713 344.409C750.38 344.409 751.827 344.167 753.054 343.682C754.296 343.197 755.259 342.523 755.94 341.659C756.622 340.795 756.963 339.803 756.963 338.682C756.963 337.636 756.652 336.758 756.031 336.045C755.425 335.333 754.531 334.727 753.349 334.227C752.183 333.727 750.751 333.273 749.054 332.864L743.986 331.591C740.062 330.636 736.963 329.144 734.69 327.114C732.418 325.083 731.289 322.348 731.304 318.909C731.289 316.091 732.039 313.629 733.554 311.523C735.084 309.417 737.183 307.773 739.849 306.591C742.516 305.409 745.546 304.818 748.94 304.818C752.395 304.818 755.41 305.409 757.986 306.591C760.577 307.773 762.592 309.417 764.031 311.523C765.471 313.629 766.213 316.068 766.259 318.841H756.827ZM789.105 352.682C785.575 352.682 782.522 351.932 779.946 350.432C777.385 348.917 775.408 346.811 774.014 344.114C772.62 341.402 771.923 338.258 771.923 334.682C771.923 331.076 772.62 327.924 774.014 325.227C775.408 322.515 777.385 320.409 779.946 318.909C782.522 317.394 785.575 316.636 789.105 316.636C792.635 316.636 795.681 317.394 798.241 318.909C800.817 320.409 802.802 322.515 804.196 325.227C805.59 327.924 806.287 331.076 806.287 334.682C806.287 338.258 805.59 341.402 804.196 344.114C802.802 346.811 800.817 348.917 798.241 350.432C795.681 351.932 792.635 352.682 789.105 352.682ZM789.151 345.182C790.757 345.182 792.098 344.727 793.173 343.818C794.249 342.894 795.06 341.636 795.605 340.045C796.166 338.455 796.446 336.644 796.446 334.614C796.446 332.583 796.166 330.773 795.605 329.182C795.06 327.591 794.249 326.333 793.173 325.409C792.098 324.485 790.757 324.023 789.151 324.023C787.529 324.023 786.166 324.485 785.06 325.409C783.969 326.333 783.143 327.591 782.582 329.182C782.037 330.773 781.764 332.583 781.764 334.614C781.764 336.644 782.037 338.455 782.582 340.045C783.143 341.636 783.969 342.894 785.06 343.818C786.166 344.727 787.529 345.182 789.151 345.182ZM828.355 352.682C824.825 352.682 821.772 351.932 819.196 350.432C816.635 348.917 814.658 346.811 813.264 344.114C811.87 341.402 811.173 338.258 811.173 334.682C811.173 331.076 811.87 327.924 813.264 325.227C814.658 322.515 816.635 320.409 819.196 318.909C821.772 317.394 824.825 316.636 828.355 316.636C831.885 316.636 834.931 317.394 837.491 318.909C840.067 320.409 842.052 322.515 843.446 325.227C844.84 327.924 845.537 331.076 845.537 334.682C845.537 338.258 844.84 341.402 843.446 344.114C842.052 346.811 840.067 348.917 837.491 350.432C834.931 351.932 831.885 352.682 828.355 352.682ZM828.401 345.182C830.007 345.182 831.348 344.727 832.423 343.818C833.499 342.894 834.31 341.636 834.855 340.045C835.416 338.455 835.696 336.644 835.696 334.614C835.696 332.583 835.416 330.773 834.855 329.182C834.31 327.591 833.499 326.333 832.423 325.409C831.348 324.485 830.007 324.023 828.401 324.023C826.779 324.023 825.416 324.485 824.31 325.409C823.219 326.333 822.393 327.591 821.832 329.182C821.287 330.773 821.014 332.583 821.014 334.614C821.014 336.644 821.287 338.455 821.832 340.045C822.393 341.636 823.219 342.894 824.31 343.818C825.416 344.727 826.779 345.182 828.401 345.182ZM861.514 331.818V352H851.832V317.091H861.06V323.25H861.469C862.241 321.22 863.537 319.614 865.355 318.432C867.173 317.235 869.378 316.636 871.969 316.636C874.393 316.636 876.507 317.167 878.31 318.227C880.113 319.288 881.514 320.803 882.514 322.773C883.514 324.727 884.014 327.061 884.014 329.773V352H874.332V331.5C874.348 329.364 873.802 327.697 872.696 326.5C871.59 325.288 870.067 324.682 868.128 324.682C866.825 324.682 865.673 324.962 864.673 325.523C863.688 326.083 862.916 326.902 862.355 327.977C861.81 329.038 861.529 330.318 861.514 331.818Z" fill="#5CC1BF"/>
</svg>
