<svg width="2971" height="1622" viewBox="0 0 2971 1622" fill="none" xmlns="http://www.w3.org/2000/svg">
<path d="M0.500122 -0.5H-0.249878V0.25V1621.75V1622.5H0.500122H2970.5H2971.25V1621.75V0.25V-0.5H2970.5H0.500122Z" fill="url(#paint0_linear_145_28)"/>
<path d="M0.500122 -0.5H-0.249878V0.25V1621.75V1622.5H0.500122H2970.5H2971.25V1621.75V0.25V-0.5H2970.5H0.500122Z" fill="url(#paint1_linear_145_28)" fill-opacity="0.1"/>
<path d="M0.500122 -0.5H-0.249878V0.25V1621.75V1622.5H0.500122H2970.5H2971.25V1621.75V0.25V-0.5H2970.5H0.500122Z" stroke="url(#paint2_linear_145_28)" stroke-width="1.5"/>
<path d="M-52.3676 1086.17L-57.9999 1087.61V1093.43V1874.18V1881.68H-50.4999H3786.14C3835.02 1885.04 3885.26 1885.19 3937.01 1881.66L3936.5 1866.68H3786.66C3572.67 1851.87 3384.84 1774.7 3209.53 1675.35C3101.37 1614.06 2998.58 1544.71 2897.3 1476.39C2833.88 1433.61 2771.06 1391.23 2707.89 1351.48C2544.44 1248.64 2379.71 1164.18 2200.56 1140.07C2021.1 1115.93 1827.94 1152.43 1607.82 1289.98C1377.44 1433.95 1200.75 1482.16 1055.19 1477.01C909.666 1471.87 794.135 1413.37 685.929 1341.59C651.06 1318.45 616.914 1293.87 582.755 1269.29C405.626 1141.79 228.145 1014.04 -52.3676 1086.17Z" fill="url(#paint3_linear_145_28)"/>
<path d="M-52.3676 1086.17L-57.9999 1087.61V1093.43V1874.18V1881.68H-50.4999H3786.14C3835.02 1885.04 3885.26 1885.19 3937.01 1881.66L3936.5 1866.68H3786.66C3572.67 1851.87 3384.84 1774.7 3209.53 1675.35C3101.37 1614.06 2998.58 1544.71 2897.3 1476.39C2833.88 1433.61 2771.06 1391.23 2707.89 1351.48C2544.44 1248.64 2379.71 1164.18 2200.56 1140.07C2021.1 1115.93 1827.94 1152.43 1607.82 1289.98C1377.44 1433.95 1200.75 1482.16 1055.19 1477.01C909.666 1471.87 794.135 1413.37 685.929 1341.59C651.06 1318.45 616.914 1293.87 582.755 1269.29C405.626 1141.79 228.145 1014.04 -52.3676 1086.17Z" stroke="url(#paint4_linear_145_28)" stroke-width="15"/>
<path d="M-52.3676 1086.17L-57.9999 1087.61V1093.43V1874.18V1881.68H-50.4999H3786.14C3835.02 1885.04 3885.26 1885.19 3937.01 1881.66L3936.5 1866.68H3786.66C3572.67 1851.87 3384.84 1774.7 3209.53 1675.35C3101.37 1614.06 2998.58 1544.71 2897.3 1476.39C2833.88 1433.61 2771.06 1391.23 2707.89 1351.48C2544.44 1248.64 2379.71 1164.18 2200.56 1140.07C2021.1 1115.93 1827.94 1152.43 1607.82 1289.98C1377.44 1433.95 1200.75 1482.16 1055.19 1477.01C909.666 1471.87 794.135 1413.37 685.929 1341.59C651.06 1318.45 616.914 1293.87 582.755 1269.29C405.626 1141.79 228.145 1014.04 -52.3676 1086.17Z" stroke="url(#paint5_linear_145_28)" stroke-opacity="0.1" stroke-width="15"/>
<defs>
<linearGradient id="paint0_linear_145_28" x1="0.500131" y1="31.7499" x2="3285.94" y2="520.033" gradientUnits="userSpaceOnUse">
<stop stop-color="#000105"/>
<stop offset="0.69" stop-color="#00020E"/>
<stop offset="1" stop-color="#23285F"/>
</linearGradient>
<linearGradient id="paint1_linear_145_28" x1="2970.5" y1="0.25" x2="-0.80383" y2="1656.19" gradientUnits="userSpaceOnUse">
<stop stop-color="#F31717" stop-opacity="0.05"/>
<stop offset="1" stop-color="#BF1A1A"/>
</linearGradient>
<linearGradient id="paint2_linear_145_28" x1="0.500122" y1="811" x2="2970.5" y2="811" gradientUnits="userSpaceOnUse">
<stop stop-color="#150C2E"/>
<stop offset="0.485" stop-color="#676669"/>
<stop offset="1" stop-color="#4600F3"/>
</linearGradient>
<linearGradient id="paint3_linear_145_28" x1="-50.4999" y1="1474.75" x2="3936.5" y2="1474.75" gradientUnits="userSpaceOnUse">
<stop stop-color="#150C2E"/>
<stop offset="0.485" stop-color="#676669"/>
<stop offset="1" stop-color="#4600F3"/>
</linearGradient>
<linearGradient id="paint4_linear_145_28" x1="-50.4999" y1="1088.37" x2="3829.23" y2="2649.47" gradientUnits="userSpaceOnUse">
<stop stop-color="#000105"/>
<stop offset="0.69" stop-color="#00020E"/>
<stop offset="1" stop-color="#23285F"/>
</linearGradient>
<linearGradient id="paint5_linear_145_28" x1="3936.5" y1="1072.75" x2="2341.08" y2="3480.01" gradientUnits="userSpaceOnUse">
<stop stop-color="#F31717" stop-opacity="0.05"/>
<stop offset="1" stop-color="#BF1A1A"/>
</linearGradient>
</defs>
</svg>
