<svg xmlns="http://www.w3.org/2000/svg"  viewBox="0 0 16 16" width="16px" height="16px"><path fill="#e8d47b" d="M3.5,10.5c-0.482,0-1-0.881-1-1.5c0-0.234,0-0.5,1-0.5c0.552,0,1,0.448,1,1S4.052,10.5,3.5,10.5z"/><path fill="#ba9b48" d="M3.5,9C3.776,9,4,9.224,4,9.5S3.776,10,3.524,10.003C3.352,9.949,3.043,9.475,3.007,9.039 C3.091,9.021,3.242,9,3.5,9 M3.5,8C2.672,8,2,8.171,2,9c0,0.828,0.672,2,1.5,2S5,10.328,5,9.5C5,8.671,4.328,8,3.5,8L3.5,8z"/><path fill="#e8d47b" d="M12.5,10.5c-0.552,0-1-0.448-1-1s0.448-1,1-1c1,0,1,0.266,1,0.5C13.5,9.619,12.982,10.5,12.5,10.5z"/><path fill="#ba9b48" d="M12.5,9c0.264,0,0.416,0.022,0.499,0.041C12.978,9.442,12.654,9.947,12.5,10 C12.224,10,12,9.776,12,9.5S12.224,9,12.5,9 M12.5,8C11.672,8,11,8.671,11,9.5c0,0.828,0.672,1.5,1.5,1.5S14,9.828,14,9 C14,8.171,13.328,8,12.5,8L12.5,8z"/><path fill="#ffeea3" d="M8,15.5c-0.459,0-0.888-0.213-1.177-0.584L6.73,14.797l-0.144-0.048 C4.74,14.134,3.5,12.427,3.5,10.5V4.855c0-1.038,0.845-1.883,1.883-1.883h5.234c1.038,0,1.883,0.845,1.883,1.883V10.5 c0,1.927-1.24,3.634-3.087,4.249L9.27,14.797l-0.093,0.119C8.888,15.287,8.459,15.5,8,15.5z"/><path fill="#ba9b48" d="M10.617,3.472C11.38,3.472,12,4.093,12,4.855V10.5c0,1.711-1.103,3.228-2.744,3.775L8.969,14.37 l-0.186,0.238C8.589,14.857,8.304,15,8,15s-0.589-0.143-0.783-0.392L7.031,14.37l-0.287-0.096C5.103,13.728,4,12.211,4,10.5V4.855 c0-0.763,0.62-1.383,1.383-1.383H10.617 M10.617,2.472H5.383C4.067,2.472,3,3.539,3,4.855V10.5c0,2.209,1.442,4.062,3.428,4.723 C6.794,15.693,7.359,16,8,16s1.206-0.307,1.572-0.777C11.558,14.562,13,12.709,13,10.5V4.855C13,3.539,11.933,2.472,10.617,2.472 L10.617,2.472z"/><g><path fill="#e0ac89" d="M12.5,9.5V8c0-1.448-1.172-2.5-2.786-2.5c-2.146,0-3.605-1.454-3.62-1.469L5.865,3.8L5.562,3.915 C5.478,3.947,3.5,4.724,3.5,7.235V9.5H3.368C3.115,8.658,2.5,6.463,2.5,5c0-2.421,1.571-3.067,2.5-3.067h0.251L5.4,1.731 C5.437,1.684,6.364,0.5,8.252,0.5c3.004,0,5.248,2.375,5.248,4.499c0,1.885-0.592,3.772-0.849,4.501H12.5z"/><path fill="#a16a4a" d="M8.252,1C10.969,1,13,3.111,13,4.999c0,0.663-0.077,1.329-0.188,1.941 C12.374,5.772,11.204,5,9.714,5C7.804,5,6.46,3.69,6.45,3.68L5.993,3.217l-0.608,0.23C5.3,3.479,3.559,4.163,3.107,6.216 C3.041,5.785,3,5.367,3,5c0-2.496,1.795-2.568,2-2.568l0.494-0.01l0.3-0.382C5.827,1.998,6.631,1,8.252,1 M8.252,0 C6.069,0,5,1.432,5,1.432C3.86,1.432,2,2.246,2,5c0,1.935,1,5,1,5h1c0,0,0-2.122,0-2.764C4,5.04,5.739,4.383,5.739,4.383 S7.335,6,9.714,6C10.993,6,12,6.78,12,8c0,0.584,0,2,0,2h1c0,0,1-2.484,1-5.001C14,2.581,11.529,0,8.252,0L8.252,0z"/></g><path fill="#36404d" d="M10.25 9A.75.75 0 1 0 10.25 10.5.75.75 0 1 0 10.25 9zM5.75 9A.75.75 0 1 0 5.75 10.5.75.75 0 1 0 5.75 9z"/></svg>